<?xml version="1.0" encoding="utf-8"?>
<!-- Generator: Adobe Illustrator 19.0.0, SVG Export Plug-In . SVG Version: 6.00 Build 0)  -->
<svg version="1.1" id="Layer_1" xmlns="http://www.w3.org/2000/svg" xmlns:xlink="http://www.w3.org/1999/xlink" x="0px" y="0px"
	 viewBox="0 0 250 50" style="enable-background:new 0 0 250 50;" xml:space="preserve">
<style type="text/css">
	.st0{fill:none;}
</style>
<g id="XMLID_3_">
</g>
<polygon id="XMLID_25_" class="st0" points="26,26.9 24.9,23.1 11.9,23.1 10.7,26.9 "/>
<g id="XMLID_1_">
	<path id="XMLID_22_" class="st0" d="M64.7,22.2c-0.5-1.3-1.2-2.4-2.1-3.4c-0.9-0.9-2-1.7-3.2-2.2c-1.2-0.5-2.5-0.8-3.9-0.8
		c-1.4,0-2.7,0.3-3.9,0.8c-1.2,0.5-2.3,1.3-3.1,2.3s-1.6,2.1-2.1,3.5c-0.1,0.2-0.2,0.5-0.2,0.7H65C64.9,22.8,64.8,22.5,64.7,22.2z"
		/>
	<path id="XMLID_23_" class="st0" d="M101.2,22.4c-0.5-1.3-1.2-2.5-2.2-3.5c-0.9-1-2-1.7-3.2-2.3c-1.2-0.5-2.6-0.8-4-0.8
		c-1.4,0-2.7,0.3-4,0.8c-1.2,0.5-2.3,1.3-3.2,2.3c-0.9,1-1.6,2.1-2.2,3.5c-0.1,0.2-0.2,0.5-0.2,0.7h19.2
		C101.3,22.8,101.2,22.6,101.2,22.4z"/>
	<polygon id="XMLID_24_" class="st0" points="18.7,2.2 18,2.2 11.9,23.1 24.9,23.1 	"/>
	<polygon id="XMLID_26_" points="13.6,0 6.6,23.1 11.9,23.1 18,2.2 18.7,2.2 24.9,23.1 30.1,23.1 23.1,0 	"/>
	<path id="XMLID_28_" d="M66.1,15.4c-1.3-1.3-2.7-2.3-4.4-2.9c-1.6-0.7-3.4-1-5.2-1c-2.2,0-4.2,0.5-6,1.4c-1.8,0.9-3.3,2.3-4.3,4.1
		h-0.7V0h-4.7v23.1h5.2c0.1-0.2,0.1-0.5,0.2-0.7c0.5-1.3,1.2-2.5,2.1-3.5s2-1.7,3.1-2.3c1.2-0.5,2.5-0.8,3.9-0.8
		c1.4,0,2.7,0.3,3.9,0.8c1.2,0.5,2.3,1.3,3.2,2.2c0.9,0.9,1.6,2.1,2.1,3.4c0.1,0.3,0.2,0.6,0.3,0.9h5c-0.2-1-0.5-2-0.8-3
		C68.4,18.2,67.4,16.6,66.1,15.4z"/>
	<path id="XMLID_30_" d="M102.2,15.4c-1.4-1.3-3-2.3-4.8-3c-1.8-0.7-3.7-1-5.6-1c-2,0-3.8,0.3-5.6,1c-1.8,0.7-3.4,1.7-4.8,3
		c-1.4,1.3-2.5,2.9-3.3,4.8c-0.4,0.9-0.7,1.8-0.9,2.8h5c0.1-0.2,0.1-0.5,0.2-0.7c0.5-1.3,1.2-2.5,2.2-3.5c0.9-1,2-1.7,3.2-2.3
		c1.2-0.5,2.6-0.8,4-0.8c1.4,0,2.7,0.3,4,0.8c1.2,0.5,2.3,1.3,3.2,2.3c0.9,1,1.6,2.1,2.2,3.5c0.1,0.2,0.2,0.5,0.2,0.7h5
		c-0.2-1-0.5-1.9-0.9-2.8C104.7,18.4,103.6,16.7,102.2,15.4z"/>
	<rect id="XMLID_33_" x="115" y="12.2" width="4.7" height="10.8"/>
	<rect id="XMLID_34_" x="136.6" y="12.2" width="4.7" height="10.8"/>
	<polygon id="XMLID_36_" points="165.1,16.6 176.6,16.6 176.6,12.2 165.1,12.2 165.1,0 160.4,0 160.4,12.2 151.1,12.2 151.1,16.6 
		160.4,16.6 160.4,23.1 165.1,23.1 	"/>
</g>
<g id="XMLID_2_">
</g>
<g id="XMLID_4_">
</g>
<g id="XMLID_5_">
</g>
<g id="XMLID_6_">
</g>
<g id="XMLID_7_">
</g>
<g id="XMLID_8_">
</g>
</svg>
