<?xml version="1.0" encoding="utf-8"?>
<!-- Generator: Adobe Illustrator 19.0.0, SVG Export Plug-In . SVG Version: 6.00 Build 0)  -->
<svg version="1.1" id="Layer_1" xmlns="http://www.w3.org/2000/svg" xmlns:xlink="http://www.w3.org/1999/xlink" x="0px" y="0px"
	 viewBox="0 0 300 70" style="enable-background:new 0 0 300 70;" xml:space="preserve">
<style type="text/css">
	.st0{display:none;fill:none;}
	.st1{display:none;}
	.st2{display:inline;fill:none;}
	.st3{display:inline;}
	.st4{fill:none;}
</style>
<path id="XMLID_28_" class="st0" d="M118.9,24.2h19.2c0-0.4-0.1-0.8-0.2-1.2h-18.8C119.1,23.4,119,23.8,118.9,24.2z"/>
<polygon id="XMLID_30_" class="st0" points="10.7,26.9 26,26.9 24.9,23.3 11.8,23.3 "/>
<polygon id="XMLID_34_" class="st1" points="11.9,23.1 11.8,23.3 24.9,23.3 24.9,23.1 "/>
<g id="XMLID_2_" class="st1">
	<path id="XMLID_26_" class="st2" d="M44.9,27.5c0,1.7,0.3,3.2,0.8,4.5c0.5,1.3,1.2,2.5,2.2,3.5c0.9,1,2,1.7,3.2,2.2
		c1.2,0.5,2.5,0.8,4,0.8s2.8-0.3,4-0.8c1.2-0.5,2.3-1.2,3.2-2.2c0.9-1,1.6-2.1,2.2-3.5c0.5-1.3,0.8-2.8,0.8-4.5v-0.7
		c0-1.3-0.2-2.6-0.5-3.7H45.5c-0.4,1.1-0.5,2.4-0.5,3.7V27.5z"/>
	<polygon id="XMLID_32_" class="st3" points="24.9,23.3 27.3,23.3 27.3,42 32.3,42 32.3,23.1 24.9,23.1 	"/>
	<polygon id="XMLID_33_" class="st3" points="4.4,23.1 4.4,42 9.4,42 9.4,23.3 11.8,23.3 11.9,23.1 	"/>
	<path id="XMLID_36_" class="st3" d="M65.2,26.8v0.7c0,1.7-0.3,3.2-0.8,4.5c-0.5,1.3-1.2,2.5-2.2,3.5c-0.9,1-2,1.7-3.2,2.2
		c-1.2,0.5-2.6,0.8-4,0.8s-2.8-0.3-4-0.8c-1.2-0.5-2.3-1.2-3.2-2.2c-0.9-1-1.6-2.1-2.2-3.5c-0.5-1.3-0.8-2.8-0.8-4.5v-0.7
		c0-1.3,0.2-2.6,0.5-3.7h-5c-0.2,1.2-0.4,2.4-0.4,3.7v0.7c0,2.5,0.4,4.7,1.2,6.6c0.8,1.9,1.9,3.5,3.3,4.8c1.4,1.3,2.9,2.3,4.7,3
		c1.8,0.7,3.7,1,5.7,1c2,0,3.8-0.3,5.7-1c1.8-0.7,3.4-1.7,4.8-3c1.4-1.3,2.4-2.9,3.3-4.8c0.8-1.9,1.2-4.1,1.2-6.6v-0.7
		c0-1.3-0.1-2.5-0.4-3.7h-5C65,24.2,65.2,25.4,65.2,26.8z"/>
	<rect id="XMLID_37_" x="89.5" y="23.1" class="st3" width="4.7" height="18.9"/>
	<rect id="XMLID_38_" x="76.3" y="23.1" class="st3" width="4.7" height="18.9"/>
	<rect id="XMLID_39_" x="102.6" y="23.1" class="st3" width="4.7" height="18.9"/>
	<path id="XMLID_41_" class="st3" d="M138,23.1c0.1,0.4,0.1,0.8,0.2,1.2h-19.2c0.1-0.4,0.1-0.8,0.2-1.2h-4.8c-0.2,1-0.3,2-0.3,3v1.4
		c0,2.3,0.4,4.4,1.1,6.2c0.7,1.9,1.7,3.5,3,4.9c1.3,1.4,2.8,2.4,4.6,3.2c1.8,0.7,3.7,1.1,5.9,1.1c3.8,0,6.9-0.9,9.1-2.6
		c2.3-1.7,3.8-4,4.7-6.8l-4.4-1.2c-0.3,0.8-0.7,1.6-1.1,2.4c-0.5,0.7-1.1,1.4-1.8,1.9c-0.7,0.6-1.6,1-2.7,1.3
		c-1,0.3-2.3,0.5-3.7,0.5c-3.1,0-5.5-0.9-7.2-2.7c-1.7-1.8-2.6-4.2-2.8-7.1h24v-3.8c0-0.5-0.1-1.1-0.1-1.7H138z"/>
</g>
<g id="XMLID_1_" class="st1">
	<path id="XMLID_6_" class="st2" d="M101.6,17.2c-0.6-0.9-1.7-1.4-3.1-1.4c-1.3,0-2.4,0.5-3.2,1.5c-0.8,1-1.2,2.5-1.2,4.5v1.2h8.5
		v-2.4C102.6,19.2,102.3,18.1,101.6,17.2z"/>
	<path id="XMLID_25_" class="st2" d="M88.4,17.1c-0.7-0.9-1.7-1.3-2.9-1.3c-1.4,0-2.6,0.5-3.3,1.6c-0.8,1-1.2,2.4-1.2,4.1v1.6h8.5
		v-2.7C89.5,19.1,89.1,18,88.4,17.1z"/>
	<path id="XMLID_27_" class="st2" d="M64.4,22.4c-0.5-1.3-1.2-2.5-2.2-3.5c-0.9-1-2-1.7-3.2-2.3c-1.2-0.5-2.6-0.8-4-0.8
		c-1.4,0-2.7,0.3-4,0.8c-1.2,0.5-2.3,1.3-3.2,2.3c-0.9,1-1.6,2.1-2.2,3.5c-0.1,0.2-0.2,0.5-0.2,0.7h19.2
		C64.6,22.8,64.5,22.6,64.4,22.4z"/>
	<path id="XMLID_29_" class="st2" d="M135.1,18.1c-0.9-0.7-1.8-1.3-2.9-1.7c-1.1-0.4-2.2-0.6-3.4-0.6c-1.3,0-2.5,0.2-3.7,0.6
		c-1.1,0.4-2.1,1-3,1.8c-0.9,0.8-1.6,1.6-2.1,2.7c-0.4,0.7-0.6,1.4-0.8,2.2H138c-0.2-0.8-0.4-1.6-0.8-2.3
		C136.6,19.7,135.9,18.8,135.1,18.1z"/>
	<polygon id="XMLID_31_" class="st3" points="27.3,0 27.3,18.6 9.4,18.6 9.4,0 4.4,0 4.4,23.1 11.9,23.1 24.9,23.1 32.3,23.1 
		32.3,0 	"/>
	<path id="XMLID_35_" class="st3" d="M65.5,15.4c-1.4-1.3-3-2.3-4.8-3c-1.8-0.7-3.7-1-5.6-1c-2,0-3.8,0.3-5.6,1
		c-1.8,0.7-3.4,1.7-4.8,3c-1.4,1.3-2.5,2.9-3.3,4.8c-0.4,0.9-0.7,1.8-0.9,2.8h5c0.1-0.2,0.1-0.5,0.2-0.7c0.5-1.3,1.2-2.5,2.2-3.5
		c0.9-1,2-1.7,3.2-2.3c1.2-0.5,2.6-0.8,4-0.8c1.4,0,2.7,0.3,4,0.8c1.2,0.5,2.3,1.3,3.2,2.3c0.9,1,1.6,2.1,2.2,3.5
		c0.1,0.2,0.2,0.5,0.2,0.7h5c-0.2-1-0.5-1.9-0.9-2.8C68,18.4,66.9,16.7,65.5,15.4z"/>
	<path id="XMLID_40_" class="st3" d="M105.4,13.5c-1.2-1.4-3-2.1-5.2-2.1c-3,0-5.1,1.4-6.5,4.1h-0.7c-0.4-1.2-1-2.2-2-2.9
		c-0.9-0.8-2.1-1.1-3.6-1.1c-1.4,0-2.5,0.3-3.5,1c-1,0.7-1.8,1.7-2.3,3.1H81v-3.2h-4.7v10.8H81v-1.6c0-1.7,0.4-3,1.2-4.1
		c0.8-1,1.9-1.6,3.3-1.6c1.2,0,2.2,0.4,2.9,1.3c0.7,0.9,1.1,2,1.1,3.3v2.7h4.7v-1.2c0-2,0.4-3.5,1.2-4.5c0.8-1,1.9-1.5,3.2-1.5
		c1.4,0,2.4,0.5,3.1,1.4c0.6,0.9,1,2.1,1,3.5v2.4h4.7v-4C107.3,16.8,106.7,15,105.4,13.5z"/>
	<path id="XMLID_42_" class="st3" d="M120,20.9c0.5-1,1.2-1.9,2.1-2.7c0.9-0.8,1.9-1.4,3-1.8c1.1-0.4,2.4-0.6,3.7-0.6
		c1.2,0,2.3,0.2,3.4,0.6c1.1,0.4,2.1,1,2.9,1.7c0.9,0.7,1.6,1.6,2.1,2.6c0.4,0.7,0.6,1.5,0.8,2.3h4.7c-0.1-0.8-0.3-1.7-0.7-2.7
		c-0.5-1.6-1.4-3-2.5-4.3c-1.1-1.3-2.6-2.4-4.4-3.3c-1.8-0.9-3.9-1.4-6.3-1.4c-2.1,0-4,0.4-5.8,1.1c-1.8,0.7-3.3,1.8-4.6,3.1
		c-1.3,1.3-2.4,2.9-3.1,4.7c-0.4,0.9-0.7,1.9-0.8,2.8h4.8C119.3,22.3,119.6,21.6,120,20.9z"/>
</g>
<g id="XMLID_5_" class="st1">
	<rect id="XMLID_9_" class="st2" width="250" height="50"/>
</g>
<polygon id="XMLID_51_" class="st0" points="234.2,24.6 235.7,23.1 233.2,23.1 233.2,24.6 "/>
<path id="XMLID_69_" class="st1" d="M212,23.6l4-0.6h-4C212,23.3,212,23.4,212,23.6z"/>
<g id="XMLID_3_" class="st1">
	<path id="XMLID_8_" class="st2" d="M174.6,22.4c-0.5-1.3-1.2-2.5-2.2-3.5s-2-1.7-3.2-2.3c-1.2-0.5-2.6-0.8-4-0.8
		c-1.4,0-2.7,0.3-4,0.8c-1.2,0.5-2.3,1.3-3.2,2.3c-0.9,1-1.6,2.1-2.2,3.5c-0.1,0.2-0.2,0.5-0.2,0.7h19.2
		C174.8,22.8,174.7,22.6,174.6,22.4z"/>
	<polygon id="XMLID_24_" class="st2" points="128.2,2.2 126.1,23.1 130.9,23.1 128.9,2.2 	"/>
	<polygon id="XMLID_44_" class="st2" points="28.6,2.2 25.6,23.1 29.3,23.1 29.3,2.2 	"/>
	<polygon id="XMLID_46_" class="st2" points="7.4,2.2 7.4,23.1 11.1,23.1 8.2,2.2 	"/>
	<path id="XMLID_50_" class="st2" d="M205.1,15.8c-1.2,0-2.3,0.2-3.2,0.7s-1.7,1.1-2.3,2s-1,1.8-1.3,2.9c-0.1,0.5-0.2,1-0.3,1.6H212
		c-0.1-2.5-0.7-4.3-2-5.4C208.7,16.5,207.1,15.8,205.1,15.8z"/>
	<polygon id="XMLID_53_" class="st3" points="12.4,0 2.8,0 2.8,23.1 7.4,23.1 7.4,2.2 8.2,2.2 11.1,23.1 15.6,23.1 	"/>
	<polygon id="XMLID_55_" class="st3" points="24.4,0 21.1,23.1 25.6,23.1 28.6,2.2 29.3,2.2 29.3,23.1 34,23.1 34,0 	"/>
	<rect id="XMLID_57_" x="63.5" y="12.2" class="st3" width="4.7" height="10.8"/>
	<rect id="XMLID_58_" x="41.9" y="12.2" class="st3" width="4.7" height="10.8"/>
	<polygon id="XMLID_60_" class="st3" points="133.1,0 123.9,0 121.7,23.1 126.1,23.1 128.2,2.2 128.9,2.2 130.9,23.1 135.3,23.1 	
		"/>
	<polygon id="XMLID_61_" class="st3" points="141.7,0 139.3,23.1 143.9,23.1 146.2,0 	"/>
	<polygon id="XMLID_63_" class="st3" points="115.4,0 110.8,0 113.2,23.1 117.7,23.1 	"/>
	<path id="XMLID_66_" class="st3" d="M175.6,15.4c-1.4-1.3-3-2.3-4.8-3c-1.8-0.7-3.7-1-5.6-1c-2,0-3.8,0.3-5.6,1
		c-1.8,0.7-3.4,1.7-4.8,3c-1.4,1.3-2.5,2.9-3.3,4.8c-0.4,0.9-0.7,1.8-0.9,2.8h5c0.1-0.2,0.1-0.5,0.2-0.7c0.5-1.3,1.2-2.5,2.2-3.5
		c0.9-1,2-1.7,3.2-2.3c1.2-0.5,2.6-0.8,4-0.8c1.4,0,2.7,0.3,4,0.8c1.2,0.5,2.3,1.3,3.2,2.3s1.6,2.1,2.2,3.5c0.1,0.2,0.2,0.5,0.2,0.7
		h5c-0.2-1-0.5-1.9-0.9-2.8C178.1,18.4,177,16.7,175.6,15.4z"/>
	<path id="XMLID_67_" class="st3" d="M214,14.3c-1.8-2-4.3-2.9-7.3-2.9c-1.8,0-3.4,0.4-4.8,1.2c-1.4,0.8-2.5,2-3.2,3.6h-0.7v-4
		h-10.8v4.3h6.1v6.5h4.8c0.1-0.5,0.2-1.1,0.3-1.6c0.3-1.1,0.7-2.1,1.3-2.9s1.3-1.5,2.3-2s2-0.7,3.2-0.7c1.9,0,3.5,0.6,4.9,1.8
		c1.2,1.1,1.9,2.9,2,5.4h4l1-0.1C216.8,19.2,215.8,16.3,214,14.3z"/>
	<polygon id="XMLID_70_" class="st3" points="251.3,12.6 251.3,12.2 245.6,12.2 235.7,23.1 241.8,23.1 	"/>
	<rect id="XMLID_71_" x="228.5" class="st3" width="4.7" height="23.1"/>
</g>
<g id="XMLID_4_" class="st1">
	<polygon id="XMLID_43_" class="st2" points="137.6,39.8 139.3,23.1 135.3,23.1 136.9,39.8 	"/>
	<path id="XMLID_45_" class="st2" d="M48.5,36.2c1.3,1.4,3.2,2.2,5.9,2.2c2.8,0,5.1-1,6.7-2.9c1.6-1.9,2.4-4.5,2.4-7.8v-4.7H46.6
		v6.3C46.6,32.5,47.3,34.8,48.5,36.2z"/>
	<polygon id="XMLID_47_" class="st2" points="18.7,39.8 21.1,23.1 15.6,23.1 18,39.8 	"/>
	<path id="XMLID_48_" class="st2" d="M155.1,27.5c0,1.7,0.3,3.2,0.8,4.5c0.5,1.3,1.2,2.5,2.2,3.5c0.9,1,2,1.7,3.2,2.2
		c1.2,0.5,2.5,0.8,4,0.8c1.4,0,2.8-0.3,4-0.8c1.2-0.5,2.3-1.2,3.2-2.2s1.6-2.1,2.2-3.5c0.5-1.3,0.8-2.8,0.8-4.5v-0.7
		c0-1.3-0.2-2.6-0.5-3.7h-19.2c-0.4,1.1-0.5,2.4-0.5,3.7V27.5z"/>
	<polygon id="XMLID_49_" class="st2" points="120.1,39.8 121.7,23.1 117.7,23.1 119.4,39.8 	"/>
	<rect id="XMLID_52_" x="2.8" y="23.1" class="st3" width="4.7" height="18.9"/>
	<polygon id="XMLID_54_" class="st3" points="18.7,39.8 18,39.8 15.6,23.1 11.1,23.1 13.8,42 22.9,42 25.6,23.1 21.1,23.1 	"/>
	<rect id="XMLID_56_" x="29.3" y="23.1" class="st3" width="4.7" height="18.9"/>
	<path id="XMLID_59_" class="st3" d="M63.5,27.7c0,3.2-0.8,5.8-2.4,7.8c-1.6,1.9-3.9,2.9-6.7,2.9c-2.6,0-4.6-0.7-5.9-2.2
		c-1.3-1.4-1.9-3.7-1.9-6.8v-6.3h-4.7V30c0,2.1,0.3,4,0.8,5.6c0.5,1.6,1.3,2.9,2.3,4c1,1.1,2.2,1.9,3.5,2.4s2.9,0.8,4.5,0.8
		c2.4,0,4.4-0.6,5.9-1.7s2.8-2.6,3.8-4.6h0.7v11.3c0,1.2-0.5,1.8-1.6,1.8H46.6V54h17c1.4,0,2.5-0.4,3.3-1.3c0.9-0.9,1.3-2,1.3-3.4
		V23.1h-4.7V27.7z"/>
	<polygon id="XMLID_62_" class="st3" points="137.6,39.8 136.9,39.8 135.3,23.1 130.9,23.1 132.8,42 142,42 143.9,23.1 139.3,23.1 	
		"/>
	<polygon id="XMLID_64_" class="st3" points="120.1,39.8 119.4,39.8 117.7,23.1 113.2,23.1 115.1,42 124.3,42 126.1,23.1 
		121.7,23.1 	"/>
	<path id="XMLID_65_" class="st3" d="M175.4,26.8v0.7c0,1.7-0.3,3.2-0.8,4.5c-0.5,1.3-1.2,2.5-2.2,3.5s-2,1.7-3.2,2.2
		c-1.2,0.5-2.5,0.8-4,0.8c-1.4,0-2.8-0.3-4-0.8c-1.2-0.5-2.3-1.2-3.2-2.2c-0.9-1-1.6-2.1-2.2-3.5c-0.5-1.3-0.8-2.8-0.8-4.5v-0.7
		c0-1.3,0.2-2.6,0.5-3.7h-5c-0.2,1.2-0.4,2.4-0.4,3.7v0.7c0,2.5,0.4,4.7,1.2,6.6c0.8,1.9,1.9,3.5,3.3,4.8c1.4,1.3,2.9,2.3,4.7,3
		s3.7,1,5.7,1c2,0,3.8-0.3,5.7-1c1.8-0.7,3.4-1.7,4.8-3c1.4-1.3,2.5-2.9,3.3-4.8c0.8-1.9,1.2-4.1,1.2-6.6v-0.7
		c0-1.3-0.1-2.5-0.4-3.7h-5C175.2,24.2,175.4,25.4,175.4,26.8z"/>
	<path id="XMLID_68_" class="st3" d="M193.3,37.7h-6.8V42h19.1v-4.3h-7.6V25.1c0-0.7,0.1-1.4,0.1-2h-4.8V37.7z"/>
	<polygon id="XMLID_72_" class="st3" points="239,26.2 241.8,23.1 235.7,23.1 234.2,24.6 233.2,24.6 233.2,23.1 228.5,23.1 
		228.5,42 233.2,42 233.2,28.9 234.4,28.9 247,42 252.8,42 252.8,41.6 239,27.3 	"/>
</g>
<path id="XMLID_79_" class="st4" d="M154.5,27.6c0,3.4,0.9,6.1,2.7,7.9c1.8,1.9,4.1,2.9,6.9,2.9c1.4,0,2.7-0.3,3.9-0.8
	c1.2-0.5,2.2-1.3,3-2.2c0.8-1,1.5-2.1,2-3.4c0.5-1.3,0.7-2.8,0.7-4.5v-0.7c0-1.3-0.2-2.6-0.5-3.7H155c-0.3,1.1-0.5,2.3-0.5,3.6V27.6
	z"/>
<path id="XMLID_81_" class="st4" d="M44.9,27.5c0,1.7,0.3,3.2,0.8,4.5c0.5,1.3,1.2,2.5,2.2,3.5c0.9,1,2,1.7,3.2,2.2
	c1.2,0.5,2.5,0.8,4,0.8s2.8-0.3,4-0.8c1.2-0.5,2.3-1.2,3.2-2.2c0.9-1,1.6-2.1,2.2-3.5c0.5-1.3,0.8-2.8,0.8-4.5v-0.7
	c0-1.3-0.2-2.6-0.5-3.7H45.5c-0.4,1.1-0.5,2.4-0.5,3.7V27.5z"/>
<path id="XMLID_85_" d="M3.8,25.7c0,5.6,1.3,9.9,3.9,12.8c2.6,2.9,6.2,4.4,10.9,4.4c2.4,0,4.5-0.4,6.4-1.2c1.8-0.8,3.4-1.9,4.6-3.2
	c1.2-1.4,2.2-3,2.8-4.9c0.6-1.9,1-3.8,1-6v-0.7h-5v0.7c0,1.4-0.2,2.7-0.6,4c-0.4,1.3-1,2.4-1.7,3.4c-0.8,1-1.8,1.8-3,2.3
	c-1.2,0.6-2.7,0.9-4.4,0.9c-3.2,0-5.7-1.1-7.3-3.3c-1.6-2.2-2.4-5.4-2.4-9.5v-2.3h-5V25.7z"/>
<path id="XMLID_87_" d="M65.2,26.8v0.7c0,1.7-0.3,3.2-0.8,4.5c-0.5,1.3-1.2,2.5-2.2,3.5c-0.9,1-2,1.7-3.2,2.2
	c-1.2,0.5-2.6,0.8-4,0.8s-2.8-0.3-4-0.8c-1.2-0.5-2.3-1.2-3.2-2.2c-0.9-1-1.6-2.1-2.2-3.5c-0.5-1.3-0.8-2.8-0.8-4.5v-0.7
	c0-1.3,0.2-2.6,0.5-3.7h-5c-0.2,1.2-0.4,2.4-0.4,3.7v0.7c0,2.5,0.4,4.7,1.2,6.6c0.8,1.9,1.9,3.5,3.3,4.8c1.4,1.3,2.9,2.3,4.7,3
	c1.8,0.7,3.7,1,5.7,1c2,0,3.8-0.3,5.7-1c1.8-0.7,3.4-1.7,4.8-3c1.4-1.3,2.4-2.9,3.3-4.8c0.8-1.9,1.2-4.1,1.2-6.6v-0.7
	c0-1.3-0.1-2.5-0.4-3.7h-5C65,24.2,65.2,25.4,65.2,26.8z"/>
<path id="XMLID_88_" d="M100.3,25.2V42h4.7V24.2c0-0.4,0-0.8,0-1.2h-4.8C100.2,23.7,100.3,24.4,100.3,25.2z"/>
<path id="XMLID_89_" d="M78.7,42h4.7V26.5c0-1.3,0.1-2.4,0.4-3.5h-5V42z"/>
<path id="XMLID_92_" d="M123.7,37.3c0,1.4,0.4,2.5,1.3,3.4c0.9,0.9,2,1.3,3.3,1.3h10.1v-4.3H130c-1.1,0-1.6-0.6-1.6-1.8V23.1h-4.7
	V37.3z"/>
<path id="XMLID_94_" d="M173.7,26.8v0.7c0,1.6-0.2,3.1-0.7,4.5c-0.5,1.3-1.1,2.5-2,3.4c-0.8,1-1.9,1.7-3,2.2
	c-1.2,0.5-2.5,0.8-3.9,0.8c-2.8,0-5.2-1-6.9-2.9c-1.8-1.9-2.7-4.5-2.7-7.9v-1c0-1.3,0.2-2.5,0.5-3.6h-5c-0.2,1.1-0.3,2.3-0.3,3.6v1
	c0,2.5,0.4,4.7,1.1,6.5c0.7,1.9,1.7,3.5,3,4.8s2.7,2.3,4.4,2.9c1.7,0.7,3.5,1,5.5,1c1.9,0,3.7-0.5,5.4-1.4c1.7-1,3-2.4,4-4.4h0.7
	v0.4c0,1.4,0.4,2.5,1.3,3.4c0.9,0.9,2,1.3,3.3,1.3h3.2v-4.3H180c-1.1,0-1.6-0.6-1.6-1.8V23.1h-5.2C173.5,24.2,173.7,25.4,173.7,26.8
	z"/>
<path id="XMLID_95_" d="M211.9,23.9l3.6-0.8h-3.7C211.8,23.3,211.8,23.6,211.9,23.9z"/>
<path id="XMLID_96_" d="M187.1,26.9v0.7c0,2.4,0.4,4.6,1.2,6.5c0.8,1.9,1.9,3.5,3.3,4.8c1.4,1.3,3,2.3,4.9,3c1.9,0.7,3.8,1,5.9,1
	c2,0,3.7-0.3,5.3-0.8c1.6-0.6,3-1.3,4.2-2.4c1.2-1,2.2-2.2,3-3.6c0.8-1.4,1.3-2.9,1.6-4.6l-4.7-1.1c-0.2,1-0.5,2-0.9,3
	c-0.5,1-1.1,1.8-1.9,2.6c-0.8,0.7-1.7,1.3-2.8,1.8c-1.1,0.5-2.4,0.7-3.9,0.7c-1.5,0-2.9-0.3-4.1-0.8s-2.4-1.2-3.4-2.1
	c-1-0.9-1.7-2-2.3-3.4c-0.5-1.3-0.8-2.9-0.8-4.5v-0.7c0-1.4,0.2-2.6,0.6-3.8h-5C187.3,24.3,187.1,25.5,187.1,26.9z"/>
<path id="XMLID_98_" d="M238.6,35.9V23.1h-4.7v14.3c0,1.4,0.4,2.5,1.3,3.4c0.9,0.9,2,1.3,3.3,1.3h10.1v-4.3h-8.5
	C239.1,37.7,238.6,37.1,238.6,35.9z"/>
<g id="XMLID_7_">
</g>
<g id="XMLID_10_">
</g>
<g id="XMLID_11_">
</g>
<g id="XMLID_12_">
</g>
<g id="XMLID_13_">
</g>
<g id="XMLID_14_">
</g>
</svg>
