<?xml version="1.0" encoding="utf-8"?>
<!-- Generator: Adobe Illustrator 19.0.0, SVG Export Plug-In . SVG Version: 6.00 Build 0)  -->
<svg version="1.1" id="Layer_1" xmlns="http://www.w3.org/2000/svg" xmlns:xlink="http://www.w3.org/1999/xlink" x="0px" y="0px"
	 viewBox="0 0 250 50" style="enable-background:new 0 0 250 50;" xml:space="preserve">
<style type="text/css">
	.st0{fill:none;}
</style>
<g id="XMLID_3_">
</g>
<path id="XMLID_28_" class="st0" d="M118.9,24.2h19.2c0-0.4-0.1-0.8-0.2-1.2h-18.8C119.1,23.4,119,23.8,118.9,24.2z"/>
<polygon id="XMLID_30_" class="st0" points="10.7,26.9 26,26.9 24.9,23.3 11.8,23.3 "/>
<polygon id="XMLID_34_" points="11.9,23.1 11.8,23.3 24.9,23.3 24.9,23.1 "/>
<g id="XMLID_2_">
	<path id="XMLID_26_" class="st0" d="M44.9,27.5c0,1.7,0.3,3.2,0.8,4.5c0.5,1.3,1.2,2.5,2.2,3.5c0.9,1,2,1.7,3.2,2.2
		c1.2,0.5,2.5,0.8,4,0.8s2.8-0.3,4-0.8c1.2-0.5,2.3-1.2,3.2-2.2c0.9-1,1.6-2.1,2.2-3.5c0.5-1.3,0.8-2.8,0.8-4.5v-0.7
		c0-1.3-0.2-2.6-0.5-3.7H45.5c-0.4,1.1-0.5,2.4-0.5,3.7V27.5z"/>
	<polygon id="XMLID_32_" points="24.9,23.3 27.3,23.3 27.3,42 32.3,42 32.3,23.1 24.9,23.1 	"/>
	<polygon id="XMLID_33_" points="4.4,23.1 4.4,42 9.4,42 9.4,23.3 11.8,23.3 11.9,23.1 	"/>
	<path id="XMLID_36_" d="M65.2,26.8v0.7c0,1.7-0.3,3.2-0.8,4.5c-0.5,1.3-1.2,2.5-2.2,3.5c-0.9,1-2,1.7-3.2,2.2
		c-1.2,0.5-2.6,0.8-4,0.8s-2.8-0.3-4-0.8c-1.2-0.5-2.3-1.2-3.2-2.2c-0.9-1-1.6-2.1-2.2-3.5c-0.5-1.3-0.8-2.8-0.8-4.5v-0.7
		c0-1.3,0.2-2.6,0.5-3.7h-5c-0.2,1.2-0.4,2.4-0.4,3.7v0.7c0,2.5,0.4,4.7,1.2,6.6c0.8,1.9,1.9,3.5,3.3,4.8c1.4,1.3,2.9,2.3,4.7,3
		c1.8,0.7,3.7,1,5.7,1c2,0,3.8-0.3,5.7-1c1.8-0.7,3.4-1.7,4.8-3c1.4-1.3,2.4-2.9,3.3-4.8c0.8-1.9,1.2-4.1,1.2-6.6v-0.7
		c0-1.3-0.1-2.5-0.4-3.7h-5C65,24.2,65.2,25.4,65.2,26.8z"/>
	<rect id="XMLID_37_" x="89.5" y="23.1" width="4.7" height="18.9"/>
	<rect id="XMLID_38_" x="76.3" y="23.1" width="4.7" height="18.9"/>
	<rect id="XMLID_39_" x="102.6" y="23.1" width="4.7" height="18.9"/>
	<path id="XMLID_41_" d="M138,23.1c0.1,0.4,0.1,0.8,0.2,1.2h-19.2c0.1-0.4,0.1-0.8,0.2-1.2h-4.8c-0.2,1-0.3,2-0.3,3v1.4
		c0,2.3,0.4,4.4,1.1,6.2c0.7,1.9,1.7,3.5,3,4.9c1.3,1.4,2.8,2.4,4.6,3.2c1.8,0.7,3.7,1.1,5.9,1.1c3.8,0,6.9-0.9,9.1-2.6
		c2.3-1.7,3.8-4,4.7-6.8l-4.4-1.2c-0.3,0.8-0.7,1.6-1.1,2.4c-0.5,0.7-1.1,1.4-1.8,1.9c-0.7,0.6-1.6,1-2.7,1.3
		c-1,0.3-2.3,0.5-3.7,0.5c-3.1,0-5.5-0.9-7.2-2.7c-1.7-1.8-2.6-4.2-2.8-7.1h24v-3.8c0-0.5-0.1-1.1-0.1-1.7H138z"/>
</g>
<g id="XMLID_1_">
</g>
<g id="XMLID_4_">
</g>
<g id="XMLID_5_">
</g>
<g id="XMLID_6_">
</g>
<g id="XMLID_7_">
</g>
<g id="XMLID_8_">
</g>
</svg>
