<?xml version="1.0" encoding="utf-8"?>
<!-- Generator: Adobe Illustrator 19.0.0, SVG Export Plug-In . SVG Version: 6.00 Build 0)  -->
<svg version="1.1" id="Layer_1" xmlns="http://www.w3.org/2000/svg" xmlns:xlink="http://www.w3.org/1999/xlink" x="0px" y="0px"
	 viewBox="0 0 300 60" style="enable-background:new 0 0 300 60;" xml:space="preserve">
<style type="text/css">
	.st0{fill:none;}
</style>
<polygon id="XMLID_17_" class="st0" points="76.8,47.8 76.8,24.9 69,24.9 76,47.8 "/>
<polygon id="XMLID_19_" points="6.8,50.4 37.7,50.4 37.7,44.8 12.8,44.8 12.8,27.9 36.9,27.9 36.9,24.9 6.8,24.9 "/>
<rect id="XMLID_23_" x="49.3" y="24.9" width="6" height="25.5"/>
<polygon id="XMLID_24_" points="76.8,47.8 76,47.8 69,24.9 63,24.9 70.8,50.4 82.9,50.4 82.9,24.9 76.8,24.9 "/>
<rect id="XMLID_26_" x="107.1" y="24.9" width="6" height="25.5"/>
<polygon id="XMLID_27_" points="139,50.4 169.9,50.4 169.9,44.8 145,44.8 145,27.9 169.1,27.9 169.1,24.9 139,24.9 "/>
<path id="XMLID_29_" d="M209.4,26.6v-0.9c0.6-0.3,1.1-0.6,1.6-0.9h-28.7v25.5h6V29.7h15.7c1.4,0,2.4,0.3,3,1
	c0.6,0.7,0.9,1.6,0.9,2.9v16.8h6V32.3c0-1.7-0.4-3-1.2-3.9C212,27.5,210.9,26.9,209.4,26.6z"/>
<g id="XMLID_1_">
</g>
<g id="XMLID_2_">
</g>
<g id="XMLID_3_">
</g>
<g id="XMLID_4_">
</g>
<g id="XMLID_5_">
</g>
<g id="XMLID_6_">
</g>
</svg>
