<?xml version="1.0" encoding="utf-8"?>
<!-- Generator: Adobe Illustrator 19.0.0, SVG Export Plug-In . SVG Version: 6.00 Build 0)  -->
<svg version="1.1" id="Layer_1" xmlns="http://www.w3.org/2000/svg" xmlns:xlink="http://www.w3.org/1999/xlink" x="0px" y="0px"
	 viewBox="0 0 300 60" style="enable-background:new 0 0 300 60;" xml:space="preserve">
<style type="text/css">
	.st0{fill:none;}
</style>
<path id="XMLID_4_" class="st0" d="M207.3,8c-1.7-1.6-4.2-2.3-7.6-2.3h-11.2V24h11.2c3.4,0,5.9-0.7,7.6-2.2c1.7-1.5,2.5-3.6,2.5-6.4
	v-1.3C209.7,11.6,208.9,9.5,207.3,8z"/>
<polygon id="XMLID_18_" class="st0" points="55.4,2.6 55.4,24.9 63,24.9 56.2,2.6 "/>
<polygon id="XMLID_20_" points="12.8,22.3 12.8,5.6 37.3,5.6 37.3,0 6.8,0 6.8,24.9 36.9,24.9 36.9,22.3 "/>
<polygon id="XMLID_21_" points="61.4,0 49.3,0 49.3,24.9 55.4,24.9 55.4,2.6 56.2,2.6 63,24.9 69,24.9 "/>
<rect id="XMLID_22_" x="76.8" y="0" width="6" height="24.9"/>
<polygon id="XMLID_25_" points="127.9,5.6 127.9,0 92.4,0 92.4,5.6 107.1,5.6 107.1,24.9 113.2,24.9 113.2,5.6 "/>
<polygon id="XMLID_28_" points="145,22.3 145,5.6 169.5,5.6 169.5,0 139,0 139,24.9 169.1,24.9 169.1,22.3 "/>
<path id="XMLID_32_" d="M214.2,21.5c1-1.9,1.5-3.7,1.5-5.6v-2.2c0-1.8-0.3-3.6-1-5.2c-0.6-1.7-1.6-3.1-2.9-4.4
	c-1.3-1.2-2.9-2.2-4.8-3C205.2,0.4,203,0,200.4,0h-18v24.9H211C212.4,24,213.5,22.8,214.2,21.5z M207.3,21.9
	c-1.7,1.5-4.2,2.2-7.6,2.2h-11.2V5.6h11.2c3.4,0,5.9,0.8,7.6,2.3c1.7,1.6,2.5,3.6,2.5,6.2v1.3C209.7,18.2,208.9,20.4,207.3,21.9z"/>
<g id="XMLID_1_">
</g>
<g id="XMLID_2_">
</g>
<g id="XMLID_3_">
</g>
<g id="XMLID_5_">
</g>
<g id="XMLID_6_">
</g>
<g id="XMLID_7_">
</g>
</svg>
